HIERARCHY
ROOT Hips
{
	OFFSET -0.001795 -0.223333 0.028219
	CHANNELS 6 Xposition Yposition Zposition Zrotation Yrotation Xrotation 
	JOINT LeftUpLeg
	{
		OFFSET 0.069520 -0.091406 -0.006815
		CHANNELS 3 Zrotation Yrotation Xrotation
		JOINT LeftLeg
		{
			OFFSET 0.034277 -0.375199 -0.004496
			CHANNELS 3 Zrotation Yrotation Xrotation
			JOINT LeftFoot
			{
				OFFSET -0.013596 -0.397961 -0.043693
				CHANNELS 3 Zrotation Yrotation Xrotation
				JOINT LeftToe
				{
					OFFSET 0.026358 -0.055791 0.119288
					CHANNELS 3 Zrotation Yrotation Xrotation
					End Site
					{
						OFFSET 0.000000 0.000000 0.000000
					}
				}
			}
		}
	}
	JOINT RightUpLeg
	{
		OFFSET -0.067670 -0.090522 -0.004320
		CHANNELS 3 Zrotation Yrotation Xrotation
		JOINT RightLeg
		{
			OFFSET -0.038290 -0.382569 -0.008850
			CHANNELS 3 Zrotation Yrotation Xrotation
			JOINT RightFoot
			{
				OFFSET 0.015774 -0.398415 -0.042312
				CHANNELS 3 Zrotation Yrotation Xrotation
				JOINT RightToe
				{
					OFFSET -0.025372 -0.048144 0.123348
					CHANNELS 3 Zrotation Yrotation Xrotation
					End Site
					{
						OFFSET 0.000000 0.000000 0.000000
					}
				}
			}
		}
	}
	JOINT Spine
	{
		OFFSET -0.002533 0.108963 -0.026696
		CHANNELS 3 Zrotation Yrotation Xrotation
		JOINT Spine1
		{
			OFFSET 0.005487 0.135180 0.001092
			CHANNELS 3 Zrotation Yrotation Xrotation
			JOINT Spine2
			{
				OFFSET 0.001457 0.052922 0.025425
				CHANNELS 3 Zrotation Yrotation Xrotation
				JOINT Neck
				{
					OFFSET -0.002778 0.213870 -0.042857
					CHANNELS 3 Zrotation Yrotation Xrotation
					JOINT Head
					{
						OFFSET 0.005152 0.064970 0.051349
						CHANNELS 3 Zrotation Yrotation Xrotation
						End Site
						{
							OFFSET 0.000000 0.000000 0.000000
						}
					}
				}
				JOINT LeftShoulder
				{
					OFFSET 0.078845 0.121749 -0.034090
					CHANNELS 3 Zrotation Yrotation Xrotation
					JOINT LeftArm
					{
						OFFSET 0.090977 0.030469 -0.008868
						CHANNELS 3 Zrotation Yrotation Xrotation
						JOINT LeftForeArm
						{
							OFFSET 0.259612 -0.012772 -0.027456
							CHANNELS 3 Zrotation Yrotation Xrotation
							JOINT LeftHand
							{
								OFFSET 0.249234 0.008986 -0.001171
								CHANNELS 3 Zrotation Yrotation Xrotation
								End Site
								{
									OFFSET 0.000000 0.000000 0.000000
								}
							}
						}
					}
				}
				JOINT RightShoulder
				{
					OFFSET -0.081759 0.118833 -0.038615
					CHANNELS 3 Zrotation Yrotation Xrotation
					JOINT RightArm
					{
						OFFSET -0.096012 0.032551 -0.009143
						CHANNELS 3 Zrotation Yrotation Xrotation
						JOINT RightForeArm
						{
							OFFSET -0.253742 -0.013329 -0.021401
							CHANNELS 3 Zrotation Yrotation Xrotation
							JOINT RightHand
							{
								OFFSET -0.255298 0.007772 -0.005559
								CHANNELS 3 Zrotation Yrotation Xrotation
								End Site
								{
									OFFSET 0.000000 0.000000 0.000000
								}
							}
						}
					}
				}
			}
		}
	}
}
MOTION
Frames: 18
Frame Time: 0.050000
0.047081 0.949129 -0.022446 1.632616 3.994428 12.228154 7.621747 -0.632855 -9.923945 -3.395885 0.332766 -0.692992 13.222089 24.824648 20.133580 0.000000 0.000000 0.000000 -7.083992 1.087030 -30.434158 1.051333 0.182861 13.009338 7.597092 6.434689 19.506713 0.000000 0.000000 0.000000 13.990176 -4.247941 19.950686 9.225821 -4.066085 -1.317483 0.620973 1.824694 -1.513062 13.912654 -11.317483 1.598103 0.000000 0.000000 0.000000 1.850866 -29.926611 10.328015 -18.114664 -17.840503 0.073417 -17.243470 -60.445203 12.167079 0.000000 0.000000 0.000000 28.076620 23.304746 14.110351 32.099217 37.007277 6.030035 28.872663 51.472907 16.273183 0.000000 0.000000 0.000000 
0.047484 0.948671 -0.022552 1.676835 3.903546 12.349126 7.669706 -0.639114 -10.187889 -3.342674 0.327237 -0.461810 13.556717 25.282503 19.472528 0.000000 0.000000 0.000000 -7.124309 1.089439 -30.630309 1.211098 0.151216 13.183616 7.208125 5.934575 19.140416 0.000000 0.000000 0.000000 14.080227 -4.262025 19.910446 8.937189 -3.876672 -1.757878 0.705001 1.674443 -1.052261 13.922507 -11.294271 1.423705 0.000000 0.000000 0.000000 1.645612 -29.498652 10.223440 -18.671036 -17.269979 0.022244 -19.621058 -61.136352 13.792465 0.000000 0.000000 0.000000 28.074085 23.292243 14.038502 31.837682 36.854254 5.894251 30.035544 51.311709 16.792409 0.000000 0.000000 0.000000 
0.047883 0.948416 -0.022882 1.669208 3.909444 12.487533 7.766377 -0.644359 -10.415018 -3.333175 0.325558 -0.339461 14.156974 26.127040 18.350490 0.000000 0.000000 0.000000 -7.106753 1.098458 -30.869018 1.242823 0.147213 13.366610 6.986414 5.644073 18.951948 0.000000 0.000000 0.000000 14.171565 -4.313597 20.030523 8.618544 -3.663322 -2.328025 0.958012 1.678771 -0.396373 14.211764 -11.551331 1.356659 0.000000 0.000000 0.000000 1.280362 -29.539575 10.308283 -18.734744 -16.992585 -0.032437 -19.882851 -61.562188 14.073115 0.000000 0.000000 0.000000 28.084232 23.235132 14.012210 31.487191 36.857790 5.748216 30.345854 51.332129 16.978222 0.000000 0.000000 0.000000 
0.048344 0.948249 -0.023402 1.715452 3.800628 12.760503 7.826318 -0.657814 -10.881126 -3.312838 0.321692 0.086151 14.548304 26.629845 18.308692 0.000000 0.000000 0.000000 -7.282088 1.077229 -31.411350 1.581868 0.076591 13.757201 6.684218 5.144250 18.871550 0.000000 0.000000 0.000000 14.152428 -4.297068 19.924809 8.641115 -3.716973 -1.937137 0.732567 2.073605 -0.796958 14.526539 -11.860064 1.569357 0.000000 0.000000 0.000000 1.430695 -29.381739 10.201195 -19.126681 -17.370465 0.052446 -20.693119 -61.679600 14.524810 0.000000 0.000000 0.000000 28.567782 23.144922 14.221962 30.979457 36.849343 5.590216 30.324296 51.221808 16.970061 0.000000 0.000000 0.000000 
0.048892 0.948228 -0.023964 1.777351 3.883665 12.833360 7.955840 -0.660774 -11.065917 -3.540072 0.342997 0.115665 14.558269 26.598934 18.848811 0.000000 0.000000 0.000000 -7.344956 1.056574 -31.646835 1.570712 0.079492 13.929536 6.555068 4.837467 19.069720 0.000000 0.000000 0.000000 14.167125 -4.360779 20.198333 8.565793 -3.640637 -2.274935 0.811415 2.164667 -0.558244 14.730334 -12.040934 1.547322 0.000000 0.000000 0.000000 1.282577 -29.377605 10.219886 -19.236274 -18.155700 0.138976 -20.815671 -61.935392 14.660095 0.000000 0.000000 0.000000 28.601597 23.065014 14.234687 31.092747 37.288897 5.704945 30.110425 50.839670 16.741117 0.000000 0.000000 0.000000 
0.049524 0.948278 -0.024421 1.873393 3.841447 12.799332 7.886867 -0.662357 -11.066657 -3.437640 0.333053 0.186060 14.256731 26.106946 20.148705 0.000000 0.000000 0.000000 -7.482640 1.027337 -31.857851 1.786508 0.034292 14.366285 6.214503 4.295041 18.946348 0.000000 0.000000 0.000000 14.309887 -4.450921 20.517420 8.332696 -3.506739 -2.531369 0.709921 2.282317 -0.153716 14.949393 -12.257681 1.536434 0.000000 0.000000 0.000000 1.746423 -29.351607 10.119544 -19.488530 -19.130422 0.248689 -20.335582 -62.154608 14.395761 0.000000 0.000000 0.000000 28.484380 22.963295 14.211987 31.587229 37.921104 5.962864 28.998877 50.697092 16.169986 0.000000 0.000000 0.000000 
0.050194 0.948353 -0.024626 2.000232 3.936478 12.657032 7.786539 -0.665737 -11.033570 -3.469646 0.334687 0.370003 13.849487 25.562959 20.801065 0.000000 0.000000 0.000000 -7.623610 0.979222 -31.952366 1.971456 -0.009802 14.775272 5.816956 3.585113 19.016895 0.000000 0.000000 0.000000 14.480108 -4.539726 20.771571 8.246213 -3.451404 -2.691951 0.514743 2.345204 0.098210 15.174638 -12.487850 1.572449 0.000000 0.000000 0.000000 2.121320 -29.304744 10.024415 -19.766261 -20.055061 0.365918 -20.218306 -62.044865 14.254471 0.000000 0.000000 0.000000 28.477487 22.729103 14.120038 32.435445 38.487636 6.324139 28.481334 50.438427 15.849656 0.000000 0.000000 0.000000 
0.050794 0.948544 -0.024511 2.031552 4.016381 12.488901 7.933375 -0.652330 -10.824702 -3.672353 0.354578 0.328736 13.294219 24.844202 21.503401 0.000000 0.000000 0.000000 -7.730424 0.939679 -31.830598 2.109125 -0.044947 14.964173 5.692548 3.408450 18.951477 0.000000 0.000000 0.000000 14.800053 -4.684464 21.125556 8.220354 -3.360696 -3.367206 0.181465 2.379117 0.710936 15.550746 -12.856369 1.557730 0.000000 0.000000 0.000000 2.371497 -29.364766 9.984002 -19.795389 -21.048531 0.458696 -20.317867 -61.729650 14.194674 0.000000 0.000000 0.000000 28.714450 22.376731 14.012387 33.547464 39.277983 6.804314 27.255845 49.590895 14.985613 0.000000 0.000000 0.000000 
0.051373 0.948564 -0.024128 1.998329 3.965043 12.279156 8.065486 -0.638485 -10.700651 -3.975828 0.385169 0.616023 13.368195 24.937737 21.296384 0.000000 0.000000 0.000000 -7.607337 0.971800 -31.624691 2.046547 -0.027508 14.978403 5.544549 3.127181 18.981165 0.000000 0.000000 0.000000 14.887020 -4.755932 21.451863 8.100282 -3.253656 -3.864509 0.344048 2.231073 1.253818 15.649145 -12.958473 1.503886 0.000000 0.000000 0.000000 2.725944 -29.349001 9.926143 -20.176431 -21.568203 0.526347 -20.271804 -61.774366 14.211841 0.000000 0.000000 0.000000 28.651205 22.144425 13.759120 34.918816 39.930778 7.393014 26.120419 49.078468 14.261781 0.000000 0.000000 0.000000 
0.051994 0.948435 -0.023684 2.028226 3.785265 12.121513 8.170266 -0.625191 -10.624843 -4.158718 0.405932 0.731802 13.395932 24.931378 21.691036 0.000000 0.000000 0.000000 -7.662387 0.974492 -31.610392 2.147804 -0.045810 15.151784 5.502585 2.959938 19.124378 0.000000 0.000000 0.000000 14.931098 -4.777122 21.611568 8.226887 -3.276084 -4.138747 0.153075 2.142149 1.583729 15.618410 -13.004798 1.645040 0.000000 0.000000 0.000000 3.109493 -29.270393 9.831673 -20.336247 -21.924327 0.567788 -20.263778 -61.741122 14.217277 0.000000 0.000000 0.000000 28.888303 21.990540 13.650434 35.857381 40.571733 7.870565 24.537856 48.570803 13.339289 0.000000 0.000000 0.000000 
0.052762 0.948241 -0.023361 2.041164 3.551407 11.982322 8.136036 -0.617931 -10.602941 -4.203351 0.413487 1.023306 13.979560 25.795916 19.306488 0.000000 0.000000 0.000000 -7.607290 1.010520 -31.563135 2.156095 -0.038530 15.336414 5.316919 2.687985 18.917650 0.000000 0.000000 0.000000 14.970077 -4.784765 21.723861 8.034267 -3.155987 -4.492520 0.305252 1.711313 1.984052 15.634608 -13.147021 2.007718 0.000000 0.000000 0.000000 3.267094 -29.135548 9.783144 -20.522366 -22.160617 0.594595 -20.279039 -61.943559 14.404441 0.000000 0.000000 0.000000 29.248636 21.994789 13.487845 36.695249 41.453864 8.443329 23.037775 47.469658 12.249673 0.000000 0.000000 0.000000 
0.053715 0.947954 -0.023163 1.994174 3.389349 11.732167 8.032541 -0.610860 -10.477688 -3.996364 0.393066 1.397001 13.775195 25.578122 18.580168 0.000000 0.000000 0.000000 -7.709685 0.999676 -31.459497 2.372383 -0.085183 15.614119 5.362098 2.779329 18.816376 0.000000 0.000000 0.000000 15.211585 -4.877288 21.995069 7.655384 -2.931072 -5.135141 0.540484 1.357667 2.603423 15.283349 -12.855061 1.925949 0.000000 0.000000 0.000000 3.249112 -29.073414 9.778759 -20.231154 -22.476931 0.578365 -19.965844 -62.047688 14.344104 0.000000 0.000000 0.000000 29.127705 21.691276 13.049290 38.113489 42.268333 9.188922 21.924675 46.480578 11.427358 0.000000 0.000000 0.000000 
0.054691 0.947886 -0.022947 2.015309 3.173369 11.720516 7.836296 -0.614031 -10.478769 -3.957507 0.390442 1.587942 13.986054 25.844359 18.432345 0.000000 0.000000 0.000000 -7.781781 1.004061 -31.426408 2.622594 -0.140219 15.711249 5.017389 2.345988 18.356092 0.000000 0.000000 0.000000 15.228616 -4.874671 22.040604 7.673475 -2.913264 -5.357277 0.468616 1.495404 2.736663 15.315449 -12.886873 1.882464 0.000000 0.000000 0.000000 3.245740 -29.202069 9.813097 -19.894413 -22.433626 0.535438 -18.679187 -61.964449 13.518039 0.000000 0.000000 0.000000 29.292476 21.740211 13.144541 37.977741 42.713231 9.278547 20.565496 46.060874 10.723016 0.000000 0.000000 0.000000 
0.055609 0.947976 -0.022605 1.955787 3.023230 11.499332 7.924174 -0.596413 -10.232918 -3.897534 0.385408 1.634140 13.781817 25.563714 18.538661 0.000000 0.000000 0.000000 -7.798285 1.009633 -31.059828 2.489788 -0.102987 15.441791 5.444815 3.003120 18.500831 0.000000 0.000000 0.000000 15.442091 -4.981101 22.403886 7.032645 -2.588304 -6.027796 0.807682 1.238885 3.256751 15.041071 -12.779500 2.176039 0.000000 0.000000 0.000000 2.839103 -29.289643 9.929740 -19.592863 -22.192033 0.454918 -18.236976 -62.170978 13.377873 0.000000 0.000000 0.000000 29.260832 21.764469 12.992638 38.365486 42.934978 9.484414 19.628442 45.773229 10.209895 0.000000 0.000000 0.000000 
0.056399 0.948007 -0.022139 2.012359 2.786338 11.300234 7.849948 -0.583618 -9.955925 -3.852831 0.382923 1.590197 13.738101 25.472045 18.776758 0.000000 0.000000 0.000000 -7.855718 1.014319 -30.759144 2.490034 -0.095827 15.232325 5.501230 3.040171 18.548090 0.000000 0.000000 0.000000 15.355310 -4.989670 22.704986 6.971210 -2.510644 -6.584949 0.871539 1.208045 3.675150 14.782091 -12.532365 1.982411 0.000000 0.000000 0.000000 2.421647 -29.413540 10.046613 -19.191487 -21.535157 0.325303 -17.503551 -62.613149 13.060079 0.000000 0.000000 0.000000 29.364017 21.962167 13.097735 37.436764 43.001666 9.163057 18.755569 45.676469 9.795884 0.000000 0.000000 0.000000 
0.057130 0.947940 -0.021634 2.092421 2.676667 11.151074 7.804754 -0.574407 -9.722418 -3.789701 0.376753 1.684496 13.352801 24.990308 18.536736 0.000000 0.000000 0.000000 -7.942435 0.998694 -30.510707 2.383621 -0.066541 15.180080 5.628618 3.337038 18.342918 0.000000 0.000000 0.000000 15.373401 -4.968066 22.663886 6.626194 -2.359937 -6.779760 0.909327 0.941508 3.930605 14.385512 -12.265024 2.173537 0.000000 0.000000 0.000000 2.095524 -29.431050 10.126430 -18.829839 -20.898859 0.212447 -17.415078 -62.803553 13.107014 0.000000 0.000000 0.000000 29.256546 22.314886 13.188658 36.882590 42.909021 8.954561 18.339986 45.876914 9.629527 0.000000 0.000000 0.000000 
0.057794 0.947888 -0.021164 2.059103 2.702839 11.043437 7.922803 -0.568890 -9.757562 -3.888722 0.388183 1.656295 13.511225 25.146142 19.196392 0.000000 0.000000 0.000000 -8.040632 0.969694 -30.390773 2.486720 -0.092112 15.286287 5.715312 3.544641 18.226495 0.000000 0.000000 0.000000 15.357650 -4.952570 22.631326 6.518469 -2.317692 -6.784771 0.913394 0.852297 3.822609 14.064851 -12.116295 2.615430 0.000000 0.000000 0.000000 1.641758 -29.540295 10.254692 -18.412063 -20.157509 0.104702 -17.309322 -62.936292 13.084974 0.000000 0.000000 0.000000 29.252236 22.327764 13.155954 36.326016 42.464565 8.634447 18.942402 46.211545 9.953214 0.000000 0.000000 0.000000 
0.058432 0.947681 -0.020770 2.025199 2.809778 10.845842 8.006969 -0.562050 -9.672579 -3.774067 0.373905 1.805775 13.214939 24.773308 19.265395 0.000000 0.000000 0.000000 -8.133685 0.932905 -30.272974 2.653215 -0.135642 15.561389 5.663297 3.526178 18.095866 0.000000 0.000000 0.000000 15.334423 -4.986023 22.847559 6.124277 -2.091103 -7.601138 1.313430 0.421570 4.497781 13.482120 -11.771688 3.026528 0.000000 0.000000 0.000000 1.180006 -29.595037 10.392407 -17.903314 -19.733834 -0.008322 -16.818279 -62.689105 12.791052 0.000000 0.000000 0.000000 29.379529 22.828167 13.356384 35.273717 42.044361 8.133804 19.537262 46.421346 10.219032 0.000000 0.000000 0.000000 
